<?xml version="1.0" encoding="UTF-8" standalone="no"?>
<svg width="60px" height="60px" viewBox="0 0 60 60" version="1.1" xmlns="http://www.w3.org/2000/svg" xmlns:xlink="http://www.w3.org/1999/xlink" xmlns:sketch="http://www.bohemiancoding.com/sketch/ns">
    <!-- Generator: Sketch 3.2.2 (9983) - http://www.bohemiancoding.com/sketch -->
    <title>Jeans</title>
    <desc>Created with Sketch.</desc>
    <defs></defs>
    <g id="stroked" stroke="none" stroke-width="1" fill="none" fill-rule="evenodd" sketch:type="MSPage">
        <g id="Care" sketch:type="MSLayerGroup" transform="translate(-718.000000, -482.000000)" stroke="#587180" stroke-width="2" stroke-linejoin="round">
            <g id="Jeans" transform="translate(729.000000, 488.000000)" sketch:type="MSShapeGroup">
                <path d="M19.2060886,3.92438919 L29.2611843,3.92438919 L37.6875381,52.0855472 L29.3692029,52.0366201 L19.2060886,20.4694465 L9.04297469,52.0366201 L0.724639496,52.0855472 L8.65269288,3.92438919 L19.2060886,3.92438919 Z" id="Rectangle-1349" stroke-linecap="round"></path>
                <path d="M28.1911164,6.06792215 C26.1231977,6.06792215 24.4468185,7.74430142 24.4468185,9.81222004 C24.4468185,11.8801387 26.1231977,13.5565179 28.1911164,13.5565179" id="Oval-1072" stroke-linecap="round" transform="translate(26.318967, 9.812220) rotate(-14.000000) translate(-26.318967, -9.812220) "></path>
                <path d="M13.1911164,6.06792215 C11.1231977,6.06792215 9.44681848,7.74430142 9.44681848,9.81222004 C9.44681848,11.8801387 11.1231977,13.5565179 13.1911164,13.5565179" id="Oval-1073" stroke-linecap="round" transform="translate(11.318967, 9.812220) scale(-1, 1) rotate(-14.000000) translate(-11.318967, -9.812220) "></path>
                <path d="M10,1 L28.0277557,1" id="Line" stroke-linecap="square"></path>
                <path d="M18.981021,14.8914107 L18.981021,8.73982766" id="Path-2576" stroke-linecap="round"></path>
            </g>
        </g>
    </g>
</svg>