<?xml version="1.0" encoding="UTF-8" standalone="no"?>
<svg width="60px" height="60px" viewBox="0 0 60 60" version="1.1" xmlns="http://www.w3.org/2000/svg" xmlns:xlink="http://www.w3.org/1999/xlink" xmlns:sketch="http://www.bohemiancoding.com/sketch/ns">
    <!-- Generator: Sketch 3.2.2 (9983) - http://www.bohemiancoding.com/sketch -->
    <title>Shortpants</title>
    <desc>Created with Sketch.</desc>
    <defs></defs>
    <g id="stroked" stroke="none" stroke-width="1" fill="none" fill-rule="evenodd" sketch:type="MSPage">
        <g id="Care" sketch:type="MSLayerGroup" transform="translate(-358.000000, -482.000000)" stroke="#587180" stroke-width="2" stroke-linejoin="round">
            <g id="Shortpants" transform="translate(365.000000, 490.000000)" sketch:type="MSShapeGroup">
                <path d="M34,50 L48,50 L44.8,0 L3.2,0 L0,50 L14,50 L24,30 L34,50 Z" id="Rectangle-1343" stroke-linecap="round"></path>
                <path d="M4,7 L44.0124969,7" id="Line" stroke-linecap="square"></path>
                <path d="M24,7 L24,16.0553856" id="Line" stroke-linecap="round"></path>
                <path d="M44,11 C40.6862915,11 38,13.6862915 38,17 C38,20.3137085 40.6862915,23 44,23" id="Oval-1068" stroke-linecap="round"></path>
                <path d="M10,11 C6.6862915,11 4,13.6862915 4,17 C4,20.3137085 6.6862915,23 10,23" id="Oval-1068" stroke-linecap="round" transform="translate(7.000000, 17.000000) scale(-1, 1) translate(-7.000000, -17.000000) "></path>
            </g>
        </g>
    </g>
</svg>