<?xml version="1.0" encoding="UTF-8" standalone="no"?>
<svg width="60px" height="60px" viewBox="0 0 60 60" version="1.1" xmlns="http://www.w3.org/2000/svg" xmlns:xlink="http://www.w3.org/1999/xlink" xmlns:sketch="http://www.bohemiancoding.com/sketch/ns">
    <!-- Generator: Sketch 3.2.2 (9983) - http://www.bohemiancoding.com/sketch -->
    <title>T-shirt</title>
    <desc>Created with Sketch.</desc>
    <defs></defs>
    <g id="stroked" stroke="none" stroke-width="1" fill="none" fill-rule="evenodd" sketch:type="MSPage">
        <g id="Care" sketch:type="MSLayerGroup" transform="translate(2.000000, -362.000000)" stroke="#587180" stroke-width="2" stroke-linecap="round" stroke-linejoin="round">
            <g id="T-shirt" transform="translate(1.000000, 371.000000)" sketch:type="MSShapeGroup">
                <path d="M13,0 L0,3 L2.18181818,16 L11.5405405,16 L13,43 L42,43 L43.4594595,16 L52.8181818,16 L55,3 L41,0 L35.8680668,0 C35.9547622,0.486913992 36,0.988174069 36,1.5 C36,6.19442037 32.1944204,10 27.5,10 C22.8055796,10 19,6.19442037 19,1.5 C19,0.988174069 19.0452378,0.486913992 19.1319332,0 L13,0 Z" id="Rectangle-1316"></path>
                <polygon id="Star-16" points="27.5 26.75 23.6793959 28.7586105 24.4090663 24.5043052 21.3181326 21.4913895 25.5896979 20.8706948 27.5 17 29.4103021 20.8706948 33.6818674 21.4913895 30.5909337 24.5043052 31.3206041 28.7586105 "></polygon>
            </g>
        </g>
    </g>
</svg>