<?xml version="1.0" encoding="UTF-8" standalone="no"?>
<svg width="60px" height="60px" viewBox="0 0 60 60" version="1.1" xmlns="http://www.w3.org/2000/svg" xmlns:xlink="http://www.w3.org/1999/xlink" xmlns:sketch="http://www.bohemiancoding.com/sketch/ns">
    <!-- Generator: Sketch 3.2.2 (9983) - http://www.bohemiancoding.com/sketch -->
    <title>Coat</title>
    <desc>Created with Sketch.</desc>
    <defs></defs>
    <g id="stroked" stroke="none" stroke-width="1" fill="none" fill-rule="evenodd" sketch:type="MSPage">
        <g id="Care" sketch:type="MSLayerGroup" transform="translate(-598.000000, -362.000000)" stroke="#587180" stroke-width="2" stroke-linecap="round" stroke-linejoin="round">
            <g id="Coat" transform="translate(602.000000, 368.000000)" sketch:type="MSShapeGroup">
                <path d="M12.7447007,6.32637819 L12.6276945,0.0407310562 L41.1905291,0.0407310562 L41.0780595,6.08266768 L41.0780595,6.08266768 L48.9290327,12.6531425 L53.7970126,43.3883585 L45.1808264,44.7530284 L40.8654062,17.5065376 L40.2979405,47.9911438 L13.5202831,47.9911438 L12.9839204,19.1774094 L8.93314032,44.7530284 L0.316954032,43.3883585 L5.18493401,12.6531425 L12.7447007,6.32637819 Z" id="Rectangle-1320"></path>
                <path d="M20,0 L34,0 L27,13 L20,0 Z" id="Triangle-40"></path>
                <rect id="Rectangle-1323" x="26" y="18" width="2" height="2"></rect>
                <rect id="Rectangle-1324" x="26" y="25" width="2" height="2"></rect>
                <rect id="Rectangle-1325" x="26" y="32" width="2" height="2"></rect>
                <rect id="Rectangle-1326" x="26" y="40" width="2" height="2"></rect>
            </g>
        </g>
    </g>
</svg>