<?xml version="1.0" encoding="UTF-8" standalone="no"?>
<svg width="60px" height="60px" viewBox="0 0 60 60" version="1.1" xmlns="http://www.w3.org/2000/svg" xmlns:xlink="http://www.w3.org/1999/xlink" xmlns:sketch="http://www.bohemiancoding.com/sketch/ns">
    <!-- Generator: Sketch 3.2.2 (9983) - http://www.bohemiancoding.com/sketch -->
    <title>Heels</title>
    <desc>Created with Sketch.</desc>
    <defs>
        <path id="path-1" d="M42,34 L44,34"></path>
    </defs>
    <g id="stroked" stroke="none" stroke-width="1" fill="none" fill-rule="evenodd" sketch:type="MSPage">
        <g id="Care" sketch:type="MSLayerGroup" transform="translate(-118.000000, -602.000000)">
            <g id="Heels" transform="translate(122.000000, 616.000000)">
                <path d="M46,16 L44.5,39 L41.5,39 L41,16" id="Rectangle-1354" stroke="#587180" stroke-width="2" stroke-linecap="round" stroke-linejoin="round" sketch:type="MSShapeGroup"></path>
                <path d="M4.9862039,38.9088419 L19.9361275,38.9088419 C19.9361275,38.9088419 27.5713766,25.2123409 32.7240856,20.7433173 C37.8767946,16.2742937 37.4942367,15.4090511 43.0234283,15.4090509 C48.5526199,15.4090507 52.0049166,15.1937473 50.9459635,7.3450371 C50.6780612,5.35940877 50.9552779,1.30013383 50.2273203,0.561632559 C48.0778371,-1.6189837 41.740401,3.36082412 37.9519297,4.34126348 C32.8804308,5.65374463 27.0242531,-0.198408732 25.8255488,4.34126348 C24.6268445,8.8809357 20.5553963,24.7332403 17.3200442,27.9549176 C14.084692,31.1765949 5.96657297,30.2448889 2.72368383,32.4714238 C-0.519205298,34.6979588 1.3945759,39 1.3945759,39 L4.9862039,38.9088419 Z" id="Path-2583" stroke="#587180" stroke-width="2" stroke-linecap="round" stroke-linejoin="round" sketch:type="MSShapeGroup"></path>
                <g id="Line">
                    <use stroke="#587180" stroke-width="2" stroke-linecap="round" stroke-linejoin="round" sketch:type="MSShapeGroup" xlink:href="#path-1"></use>
                    <use stroke="none" xlink:href="#path-1"></use>
                </g>
            </g>
        </g>
    </g>
</svg>